HIERARCHY
ROOT Hips
{
	OFFSET -211.153198 91.653587 -35.738949
	CHANNELS 6 Xposition Yposition Zposition Zrotation Yrotation Xrotation 
	JOINT LeftUpLeg
	{
		OFFSET 0.103455 1.857827 10.548507
		CHANNELS 3 Zrotation Yrotation Xrotation
		JOINT LeftLeg
		{
			OFFSET 43.500000 -0.000031 0.000008
			CHANNELS 3 Zrotation Yrotation Xrotation
			JOINT LeftFoot
			{
				OFFSET 42.372192 0.000011 -0.000014
				CHANNELS 3 Zrotation Yrotation Xrotation
				JOINT LeftToe
				{
					OFFSET 17.299997 -0.000002 0.000013
					CHANNELS 3 Zrotation Yrotation Xrotation
					End Site
					{
						OFFSET 0.000000 0.000000 0.000000
					}
				}
			}
		}
	}
	JOINT RightUpLeg
	{
		OFFSET 0.103457 1.857826 -10.548499
		CHANNELS 3 Zrotation Yrotation Xrotation
		JOINT RightLeg
		{
			OFFSET 43.500046 -0.000019 0.000015
			CHANNELS 3 Zrotation Yrotation Xrotation
			JOINT RightFoot
			{
				OFFSET 42.372261 -0.000004 0.000013
				CHANNELS 3 Zrotation Yrotation Xrotation
				JOINT RightToe
				{
					OFFSET 17.299992 -0.000006 0.000004
					CHANNELS 3 Zrotation Yrotation Xrotation
					End Site
					{
						OFFSET 0.000000 0.000000 0.000000
					}
				}
			}
		}
	}
	JOINT Spine
	{
		OFFSET 6.901968 -2.603730 -0.000002
		CHANNELS 3 Zrotation Yrotation Xrotation
		JOINT Spine1
		{
			OFFSET 12.588100 -0.000001 0.000009
			CHANNELS 3 Zrotation Yrotation Xrotation
			JOINT Spine2
			{
				OFFSET 12.343201 0.000005 -0.000005
				CHANNELS 3 Zrotation Yrotation Xrotation
				JOINT Neck
				{
					OFFSET 25.832893 -0.000008 -0.000006
					CHANNELS 3 Zrotation Yrotation Xrotation
					JOINT Head
					{
						OFFSET 11.766606 0.000005 0.000008
						CHANNELS 3 Zrotation Yrotation Xrotation
						End Site
						{
							OFFSET 0.000000 0.000000 0.000000
						}
					}
				}
				JOINT LeftShoulder
				{
					OFFSET 19.745903 -1.480373 6.000100
					CHANNELS 3 Zrotation Yrotation Xrotation
					JOINT LeftArm
					{
						OFFSET 11.284123 -0.000007 -0.000024
						CHANNELS 3 Zrotation Yrotation Xrotation
						JOINT LeftForeArm
						{
							OFFSET 33.000053 0.000004 0.000036
							CHANNELS 3 Zrotation Yrotation Xrotation
							JOINT LeftHand
							{
								OFFSET 25.200006 0.000021 -0.000003
								CHANNELS 3 Zrotation Yrotation Xrotation
								End Site
								{
									OFFSET 0.000000 0.000000 0.000000
								}
							}
						}
					}
				}
				JOINT RightShoulder
				{
					OFFSET 19.746101 -1.480381 -6.000079
					CHANNELS 3 Zrotation Yrotation Xrotation
					JOINT RightArm
					{
						OFFSET 11.284133 -0.000015 -0.000008
						CHANNELS 3 Zrotation Yrotation Xrotation
						JOINT RightForeArm
						{
							OFFSET 33.000099 0.000016 0.000006
							CHANNELS 3 Zrotation Yrotation Xrotation
							JOINT RightHand
							{
								OFFSET 25.199781 0.000142 0.000425
								CHANNELS 3 Zrotation Yrotation Xrotation
								End Site
								{
									OFFSET 0.000000 0.000000 0.000000
								}
							}
						}
					}
				}
			}
		}
	}
}
MOTION
Frames: 5
Frame Time: 0.033333
105.648499 91.508133 29.780861 90.405367 7.019625 89.925963 178.332168 -3.676310 -177.338444 -20.008460 -4.189515 -6.052263 79.341404 2.786341 -6.388525 21.454551 0.003087 0.000000 -177.488258 8.982191 -172.405764 -15.713656 4.505437 3.046953 77.472841 -1.086509 4.610021 21.454558 -0.003105 -0.000017 7.857257 -0.878664 0.460819 5.695518 -1.778879 0.878171 5.377294 -1.773394 0.888899 -0.567430 -4.980662 -5.811778 -18.291458 13.699606 -12.077581 -172.456170 -75.928816 -9.201277 -31.431649 55.378747 18.716626 -31.474406 -13.178889 1.141567 8.881596 -5.030002 32.517998 -164.598092 68.890640 17.244993 -4.460681 -56.309910 -16.665303 -33.903338 18.016564 -1.531564 6.167323 -2.827107 -14.488880 
105.379501 91.534767 29.635160 90.601264 7.149609 90.538495 178.384078 -3.640584 -177.260034 -19.788310 -4.083813 -5.823184 79.177172 2.695500 -6.065541 21.454555 0.003091 -0.000001 -177.202537 8.972406 -171.974301 -15.541581 4.552670 3.160346 77.500176 -1.192954 4.525479 21.454558 -0.003103 -0.000016 7.905651 -0.920080 0.365084 5.793693 -1.857237 0.683982 5.475416 -1.852922 0.695174 -0.869207 -4.570374 -5.943206 -18.190394 13.481446 -12.048741 -173.010918 -75.650117 -8.632533 -29.263508 55.710295 20.258848 -28.079072 -12.324424 1.022018 9.552206 -6.709421 32.724095 -163.826814 68.544254 18.045119 -4.705310 -56.440056 -16.455946 -34.689889 18.096031 -1.554677 5.864739 -2.378264 -13.897513 
105.116798 91.569031 29.569580 90.714147 7.228109 91.137871 178.428447 -3.813710 -177.383209 -19.605679 -4.109836 -5.438732 79.110550 2.438116 -6.004377 21.454551 0.003090 -0.000001 -176.833488 8.851390 -171.842109 -15.165269 4.643264 3.458039 77.457344 -1.404206 4.530872 21.454557 -0.003098 -0.000017 7.924241 -0.941133 0.324143 5.831458 -1.897353 0.600779 5.513198 -1.893562 0.612240 -0.848791 -4.327254 -6.195547 -18.323936 13.428357 -12.260381 -172.104088 -75.146609 -9.557486 -26.676824 55.804585 21.711510 -26.328615 -11.837856 0.960769 9.827031 -8.089703 33.241226 -163.250592 68.147284 18.644830 -4.539882 -56.350929 -16.578418 -35.059429 18.047766 -1.560184 5.595236 -2.017423 -12.975777 
104.883202 91.589844 29.581520 90.770748 7.270330 91.444027 178.521829 -4.053602 -177.840900 -19.455850 -4.123100 -4.997989 79.054474 2.097695 -6.116401 21.454555 0.003090 0.000001 -176.603024 8.725601 -171.899947 -14.942598 4.731806 3.684980 77.465909 -1.573267 4.506931 21.454557 -0.003107 -0.000017 7.915654 -0.970509 0.393486 5.812983 -1.959527 0.738086 5.494712 -1.954890 0.749898 -0.579697 -3.976887 -6.591859 -18.513858 13.359814 -12.595542 -169.647187 -74.977896 -12.071722 -23.721223 56.030443 23.224831 -26.712689 -11.844698 0.967556 9.811153 -8.764710 33.964475 -163.065726 67.695057 18.840647 -4.224432 -55.994451 -17.177181 -34.697511 17.844207 -1.538641 5.486419 -1.735192 -11.926467 
104.676903 91.581360 29.634371 90.846659 7.273264 91.593520 178.598546 -4.164201 -177.895118 -19.323421 -4.146432 -4.868885 78.949897 1.978922 -6.211813 21.454555 0.003092 -0.000001 -176.674331 8.658910 -172.013888 -15.219000 4.749463 3.820561 77.674660 -1.689230 4.455836 21.454560 -0.003104 -0.000017 7.892441 -1.007361 0.519872 5.764134 -2.039269 0.989310 5.445858 -2.033125 1.001618 -0.419017 -3.727822 -7.029895 -18.388281 13.277828 -12.945474 -166.494358 -75.067734 -15.298910 -20.915837 56.322314 24.385469 -27.999474 -11.932180 0.995274 9.369862 -8.527604 34.181955 -162.829087 67.472420 19.088012 -4.078221 -55.706094 -17.662511 -33.810294 17.463750 -1.493921 5.573970 -1.860190 -11.770539 
